<svg width="48" height="20" viewBox="0 0 48 20" fill="none" xmlns="http://www.w3.org/2000/svg">
<g clip-path="url(#clip0_508_5890)">
<path d="M8.30029 0C3.71618 0 0 3.66981 0 8.19674C0 12.7237 3.71618 16.3935 8.30029 16.3935L8.31794 19.4794C12.5828 17.0278 16.6389 13.7555 16.6389 8.19674C16.6389 3.66981 12.8844 0 8.30029 0Z" fill="url(#paint0_linear_508_5890)"/>
<g filter="url(#filter0_i_508_5890)">
<path d="M8.30029 0C3.71618 0 0 3.66981 0 8.19674C0 12.7237 3.71618 16.3935 8.30029 16.3935L8.31794 19.4794C12.5828 17.0278 16.6389 13.7555 16.6389 8.19674C16.6389 3.66981 12.8844 0 8.30029 0Z" fill="#428B7F"/>
</g>
<g filter="url(#filter1_i_508_5890)">
<path d="M8.30029 0C3.71618 0 0 3.66981 0 8.19674C0 12.7237 3.71618 16.3935 8.30029 16.3935L8.31794 19.4794C12.5828 17.0278 16.6389 13.7555 16.6389 8.19674C16.6389 3.66981 12.8844 0 8.30029 0Z" fill="#428B7F"/>
</g>
<mask id="mask0_508_5890" style="mask-type:alpha" maskUnits="userSpaceOnUse" x="0" y="0" width="17" height="20">
<path d="M8.30029 0C3.71618 0 0 3.66981 0 8.19674C0 12.7237 3.71618 16.3935 8.30029 16.3935L8.31794 19.4794C12.5828 17.0278 16.6389 13.7555 16.6389 8.19674C16.6389 3.66981 12.8844 0 8.30029 0Z" fill="white"/>
</mask>
<g mask="url(#mask0_508_5890)">
<path d="M3.79102 11.0875L10.8792 18.5023L20.2753 11.5519L13.4851 5.37402L12.0332 7.89148L3.79102 11.0875Z" fill="url(#paint1_linear_508_5890)" fill-opacity="0.21"/>
</g>
<g filter="url(#filter2_d_508_5890)">
<path d="M3.61316 8.42651V10.6787C3.61316 11.2732 4.09392 11.7597 4.68152 11.7597H10.2082C10.7958 11.7597 11.2765 11.2732 11.2765 10.6787V9.25635L13.4646 11.4704V8.42651H3.61316Z" fill="#428B7F"/>
</g>
<path d="M3.61316 8.42651V10.6787C3.61316 11.2732 4.09392 11.7597 4.68152 11.7597H10.2082C10.7958 11.7597 11.2765 11.2732 11.2765 10.6787V9.25635L13.4646 11.4704V8.42651H3.61316Z" fill="#F6F6F6"/>
<path d="M13.4646 8.42645V5.37391L11.2765 7.58324V6.1743C11.2765 5.57971 10.7958 5.09326 10.2082 5.09326H4.68152C4.09392 5.09326 3.61316 5.57971 3.61316 6.1743V8.42645H13.4646Z" fill="#E2E2E2"/>
</g>
<path d="M29.8642 5.78845L27.4938 10.0936H27.4735L25.1031 5.78845H23.8774V12.9806H25.1031V8.15883H25.1133L27.0785 11.5928H27.8787L29.854 8.15883H29.8642V12.9806H31.0899V5.78845H29.8642Z" fill="#428B7F"/>
<path d="M37.3272 10.4482C37.3272 9.00973 36.3851 7.96636 34.9265 7.96636C33.5488 7.96636 32.5156 8.98947 32.5156 10.5089C32.5156 12.0487 33.5994 13.0617 35.0379 13.0617C36.0103 13.0617 36.7093 12.6666 37.1246 12.1297L36.3345 11.451C36.0812 11.765 35.6761 12.0284 35.0987 12.0284C34.3693 12.0284 33.8426 11.603 33.6906 10.904H37.2968C37.307 10.8128 37.3272 10.6305 37.3272 10.4482ZM34.9872 8.98947C35.6355 8.98947 36.0407 9.39466 36.1825 9.99232H33.7109C33.873 9.34401 34.3592 8.98947 34.9872 8.98947Z" fill="#428B7F"/>
<path d="M43.1166 10.4482C43.1166 9.00973 42.1746 7.96636 40.7159 7.96636C39.3382 7.96636 38.305 8.98947 38.305 10.5089C38.305 12.0487 39.3889 13.0617 40.8273 13.0617C41.7998 13.0617 42.4987 12.6666 42.914 12.1297L42.1239 11.451C41.8707 11.765 41.4655 12.0284 40.8881 12.0284C40.1587 12.0284 39.632 11.603 39.48 10.904H43.0863C43.0964 10.8128 43.1166 10.6305 43.1166 10.4482ZM40.7767 8.98947C41.425 8.98947 41.8302 9.39466 41.972 9.99232H39.5003C39.6624 9.34401 40.1486 8.98947 40.7767 8.98947Z" fill="#428B7F"/>
<path d="M45.857 13.0617C46.5053 13.0617 46.8193 12.93 47.1131 12.7679L46.8193 11.7853C46.5559 11.9271 46.2824 11.998 46.09 11.998C45.7658 11.998 45.6139 11.8157 45.6139 11.3092V8.9996H47.0624V8.03727H45.6139V6.27468L44.4793 6.39624V8.03727H43.8715V8.9996H44.4793V11.4206C44.4793 12.5248 45.0061 13.0617 45.857 13.0617Z" fill="#428B7F"/>
<defs>
<filter id="filter0_i_508_5890" x="0" y="0" width="16.6388" height="21.4794" filterUnits="userSpaceOnUse" color-interpolation-filters="sRGB">
<feFlood flood-opacity="0" result="BackgroundImageFix"/>
<feBlend mode="normal" in="SourceGraphic" in2="BackgroundImageFix" result="shape"/>
<feColorMatrix in="SourceAlpha" type="matrix" values="0 0 0 0 0 0 0 0 0 0 0 0 0 0 0 0 0 0 127 0" result="hardAlpha"/>
<feOffset dy="2"/>
<feGaussianBlur stdDeviation="2"/>
<feComposite in2="hardAlpha" operator="arithmetic" k2="-1" k3="1"/>
<feColorMatrix type="matrix" values="0 0 0 0 1 0 0 0 0 1 0 0 0 0 1 0 0 0 0.2 0"/>
<feBlend mode="normal" in2="shape" result="effect1_innerShadow_508_5890"/>
</filter>
<filter id="filter1_i_508_5890" x="0" y="-2" width="16.6388" height="21.4794" filterUnits="userSpaceOnUse" color-interpolation-filters="sRGB">
<feFlood flood-opacity="0" result="BackgroundImageFix"/>
<feBlend mode="normal" in="SourceGraphic" in2="BackgroundImageFix" result="shape"/>
<feColorMatrix in="SourceAlpha" type="matrix" values="0 0 0 0 0 0 0 0 0 0 0 0 0 0 0 0 0 0 127 0" result="hardAlpha"/>
<feOffset dy="-2"/>
<feGaussianBlur stdDeviation="2"/>
<feComposite in2="hardAlpha" operator="arithmetic" k2="-1" k3="1"/>
<feColorMatrix type="matrix" values="0 0 0 0 0 0 0 0 0 0 0 0 0 0 0 0 0 0 0.1 0"/>
<feBlend mode="normal" in2="shape" result="effect1_innerShadow_508_5890"/>
</filter>
<filter id="filter2_d_508_5890" x="0.613159" y="7.42651" width="17.8514" height="11.3331" filterUnits="userSpaceOnUse" color-interpolation-filters="sRGB">
<feFlood flood-opacity="0" result="BackgroundImageFix"/>
<feColorMatrix in="SourceAlpha" type="matrix" values="0 0 0 0 0 0 0 0 0 0 0 0 0 0 0 0 0 0 127 0" result="hardAlpha"/>
<feOffset dx="1" dy="3"/>
<feGaussianBlur stdDeviation="2"/>
<feColorMatrix type="matrix" values="0 0 0 0 0 0 0 0 0 0 0 0 0 0 0 0 0 0 0.1 0"/>
<feBlend mode="normal" in2="BackgroundImageFix" result="effect1_dropShadow_508_5890"/>
<feBlend mode="normal" in="SourceGraphic" in2="effect1_dropShadow_508_5890" result="shape"/>
</filter>
<linearGradient id="paint0_linear_508_5890" x1="4.33776" y1="13.2542" x2="13.7385" y2="5.24331" gradientUnits="userSpaceOnUse">
<stop stop-color="#058D80"/>
<stop offset="1" stop-color="#058D7F"/>
</linearGradient>
<linearGradient id="paint1_linear_508_5890" x1="8.74427" y1="8.95835" x2="15.2395" y2="17.9698" gradientUnits="userSpaceOnUse">
<stop/>
<stop offset="1" stop-color="#D8D8D8" stop-opacity="0"/>
</linearGradient>
<clipPath id="clip0_508_5890">
<rect width="16.6418" height="19.5361" fill="white"/>
</clipPath>
</defs>
</svg>
