<svg width="189" height="56" viewBox="0 0 189 56" fill="none" xmlns="http://www.w3.org/2000/svg">
<path d="M76.3849 23V11.888L74.1289 13.568L72.0169 10.256L77.3689 6.512H80.8969V23H76.3849ZM93.8974 20.96C92.6974 22.48 91.0814 23.24 89.0494 23.24C87.0174 23.24 85.3934 22.48 84.1774 20.96C82.9774 19.44 82.3774 17.368 82.3774 14.744C82.3774 12.168 82.9774 10.112 84.1774 8.576C85.3934 7.04 87.0174 6.272 89.0494 6.272C91.0814 6.272 92.6974 7.032 93.8974 8.552C95.1134 10.072 95.7214 12.136 95.7214 14.744C95.7214 17.352 95.1134 19.424 93.8974 20.96ZM89.0494 19.064C89.6734 19.064 90.1694 18.712 90.5374 18.008C90.9214 17.304 91.1134 16.216 91.1134 14.744C91.1134 13.432 90.9454 12.392 90.6094 11.624C90.2734 10.84 89.7534 10.448 89.0494 10.448C88.4094 10.448 87.9054 10.8 87.5374 11.504C87.1694 12.208 86.9854 13.288 86.9854 14.744C86.9854 16.072 87.1534 17.128 87.4894 17.912C87.8254 18.68 88.3454 19.064 89.0494 19.064ZM108.013 20.96C106.813 22.48 105.197 23.24 103.165 23.24C101.133 23.24 99.5094 22.48 98.2934 20.96C97.0934 19.44 96.4934 17.368 96.4934 14.744C96.4934 12.168 97.0934 10.112 98.2934 8.576C99.5094 7.04 101.133 6.272 103.165 6.272C105.197 6.272 106.813 7.032 108.013 8.552C109.229 10.072 109.837 12.136 109.837 14.744C109.837 17.352 109.229 19.424 108.013 20.96ZM103.165 19.064C103.789 19.064 104.285 18.712 104.653 18.008C105.037 17.304 105.229 16.216 105.229 14.744C105.229 13.432 105.061 12.392 104.725 11.624C104.389 10.84 103.869 10.448 103.165 10.448C102.525 10.448 102.021 10.8 101.653 11.504C101.285 12.208 101.101 13.288 101.101 14.744C101.101 16.072 101.269 17.128 101.605 17.912C101.941 18.68 102.461 19.064 103.165 19.064ZM119.585 23.672L116.657 22.424L124.289 5.528L127.193 6.8L119.585 23.672ZM115.193 15.368C113.817 15.368 112.657 14.92 111.713 14.024C110.785 13.112 110.321 11.944 110.321 10.52C110.321 9.176 110.769 8.048 111.665 7.136C112.577 6.208 113.753 5.744 115.193 5.744C116.569 5.744 117.729 6.192 118.673 7.088C119.617 7.968 120.089 9.112 120.089 10.52C120.089 11.88 119.633 13.032 118.721 13.976C117.809 14.904 116.633 15.368 115.193 15.368ZM115.217 12.632C115.761 12.632 116.201 12.432 116.537 12.032C116.873 11.632 117.041 11.144 117.041 10.568C117.041 9.96 116.865 9.464 116.513 9.08C116.161 8.696 115.729 8.504 115.217 8.504C114.689 8.504 114.249 8.704 113.897 9.104C113.561 9.504 113.393 9.992 113.393 10.568C113.393 11.176 113.569 11.672 113.921 12.056C114.273 12.44 114.705 12.632 115.217 12.632ZM128.633 23.24C127.257 23.24 126.097 22.792 125.153 21.896C124.225 20.984 123.761 19.824 123.761 18.416C123.761 17.056 124.209 15.912 125.105 14.984C126.017 14.056 127.193 13.592 128.633 13.592C130.009 13.592 131.161 14.04 132.089 14.936C133.033 15.832 133.505 16.992 133.505 18.416C133.505 19.76 133.049 20.904 132.137 21.848C131.241 22.776 130.073 23.24 128.633 23.24ZM128.657 20.504C129.201 20.504 129.641 20.304 129.977 19.904C130.313 19.504 130.481 19.016 130.481 18.44C130.481 17.832 130.305 17.344 129.953 16.976C129.601 16.592 129.169 16.4 128.657 16.4C128.113 16.4 127.673 16.6 127.337 17C127.001 17.384 126.833 17.864 126.833 18.44C126.833 19.048 127.009 19.544 127.361 19.928C127.713 20.312 128.145 20.504 128.657 20.504Z" fill="#333461"/>
<path d="M75.5698 47.072C74.3778 47.072 73.3698 46.632 72.5458 45.752L73.2178 44.96C73.5138 45.328 73.8738 45.608 74.2978 45.8C74.7218 45.992 75.1498 46.088 75.5818 46.088C76.1098 46.088 76.5298 45.972 76.8418 45.74C77.1618 45.508 77.3218 45.188 77.3218 44.78C77.3218 44.556 77.2818 44.364 77.2018 44.204C77.1298 44.044 77.0018 43.904 76.8178 43.784C76.6338 43.656 76.4538 43.556 76.2778 43.484C76.1098 43.404 75.8658 43.304 75.5458 43.184C75.4898 43.16 75.4458 43.144 75.4138 43.136C75.1018 43.024 74.8458 42.928 74.6458 42.848C74.4538 42.76 74.2298 42.64 73.9738 42.488C73.7258 42.336 73.5298 42.184 73.3858 42.032C73.2498 41.872 73.1298 41.676 73.0258 41.444C72.9218 41.204 72.8698 40.94 72.8698 40.652C72.8698 40.02 73.1218 39.488 73.6258 39.056C74.1298 38.624 74.7458 38.404 75.4738 38.396C76.4338 38.396 77.3338 38.728 78.1738 39.392L77.5378 40.208C76.8738 39.648 76.1858 39.368 75.4738 39.368C75.0578 39.368 74.7018 39.48 74.4058 39.704C74.1098 39.92 73.9618 40.22 73.9618 40.604C73.9618 40.764 73.9938 40.912 74.0578 41.048C74.1218 41.176 74.1938 41.284 74.2738 41.372C74.3538 41.452 74.4938 41.544 74.6938 41.648C74.8938 41.752 75.0498 41.832 75.1618 41.888C75.2818 41.936 75.4858 42.016 75.7738 42.128C76.6538 42.464 77.2338 42.728 77.5138 42.92C78.1138 43.328 78.4138 43.912 78.4138 44.672C78.4138 45.424 78.1338 46.012 77.5738 46.436C77.0218 46.86 76.3538 47.072 75.5698 47.072ZM83.8376 41.156H84.8096V47H83.8376V46.028H83.8256C83.3376 46.724 82.6976 47.072 81.9056 47.072C81.2096 47.072 80.6696 46.872 80.2856 46.472C79.9016 46.064 79.7096 45.452 79.7096 44.636V41.156H80.6816V44.36C80.6816 45.008 80.7976 45.476 81.0296 45.764C81.2696 46.044 81.6296 46.184 82.1096 46.184C82.5896 46.184 82.9976 45.988 83.3336 45.596C83.6696 45.196 83.8376 44.66 83.8376 43.988V41.156ZM89.0151 47.072C88.1671 47.072 87.4711 46.796 86.9271 46.244C86.3911 45.684 86.1231 44.964 86.1231 44.084C86.1231 43.204 86.3951 42.484 86.9391 41.924C87.4911 41.364 88.1951 41.084 89.0511 41.084C89.4991 41.084 89.9311 41.176 90.3471 41.36C90.7711 41.536 91.1231 41.792 91.4031 42.128L90.7311 42.716C90.3391 42.228 89.7951 41.984 89.0991 41.984C88.5151 41.984 88.0351 42.18 87.6591 42.572C87.2911 42.964 87.1071 43.468 87.1071 44.084C87.1071 44.708 87.2911 45.216 87.6591 45.608C88.0271 45.992 88.5071 46.184 89.0991 46.184C89.7791 46.184 90.3311 45.952 90.7551 45.488L91.4271 46.088C91.1711 46.376 90.8311 46.612 90.4071 46.796C89.9831 46.98 89.5191 47.072 89.0151 47.072ZM95.1646 47.072C94.3166 47.072 93.6206 46.796 93.0766 46.244C92.5406 45.684 92.2726 44.964 92.2726 44.084C92.2726 43.204 92.5446 42.484 93.0886 41.924C93.6406 41.364 94.3446 41.084 95.2006 41.084C95.6486 41.084 96.0806 41.176 96.4966 41.36C96.9206 41.536 97.2726 41.792 97.5526 42.128L96.8806 42.716C96.4886 42.228 95.9446 41.984 95.2486 41.984C94.6646 41.984 94.1846 42.18 93.8086 42.572C93.4406 42.964 93.2566 43.468 93.2566 44.084C93.2566 44.708 93.4406 45.216 93.8086 45.608C94.1766 45.992 94.6566 46.184 95.2486 46.184C95.9286 46.184 96.4806 45.952 96.9046 45.488L97.5766 46.088C97.3206 46.376 96.9806 46.612 96.5566 46.796C96.1326 46.98 95.6686 47.072 95.1646 47.072ZM103.93 43.988C103.93 44.052 103.926 44.136 103.918 44.24L103.906 44.384H99.4061C99.4701 44.928 99.6781 45.364 100.03 45.692C100.39 46.02 100.834 46.184 101.362 46.184C102.042 46.184 102.59 45.92 103.006 45.392L103.69 45.98C103.122 46.708 102.334 47.072 101.326 47.072C100.486 47.072 99.7901 46.796 99.2381 46.244C98.6941 45.684 98.4221 44.964 98.4221 44.084C98.4221 43.212 98.6861 42.496 99.2141 41.936C99.7501 41.368 100.418 41.084 101.218 41.084C102.026 41.084 102.678 41.356 103.174 41.9C103.678 42.444 103.93 43.14 103.93 43.988ZM102.406 42.416C102.11 42.128 101.73 41.984 101.266 41.984C100.802 41.984 100.402 42.128 100.066 42.416C99.7381 42.696 99.5301 43.084 99.4421 43.58H102.97C102.89 43.092 102.702 42.704 102.406 42.416ZM107.071 47.072C106.167 47.072 105.403 46.792 104.779 46.232L105.283 45.5C105.787 45.964 106.383 46.196 107.071 46.196C107.407 46.196 107.675 46.12 107.875 45.968C108.075 45.816 108.175 45.632 108.175 45.416C108.175 45.192 108.075 45.024 107.875 44.912C107.683 44.792 107.343 44.648 106.855 44.48C106.823 44.472 106.799 44.464 106.783 44.456C106.215 44.256 105.779 44.028 105.475 43.772C105.179 43.516 105.031 43.144 105.031 42.656C105.031 42.208 105.211 41.836 105.571 41.54C105.939 41.236 106.403 41.084 106.963 41.084C107.707 41.084 108.375 41.324 108.967 41.804L108.463 42.572C107.999 42.172 107.483 41.972 106.915 41.972C106.683 41.972 106.475 42.036 106.291 42.164C106.107 42.292 106.015 42.456 106.015 42.656C106.015 42.864 106.103 43.032 106.279 43.16C106.463 43.288 106.743 43.424 107.119 43.568C107.183 43.592 107.299 43.636 107.467 43.7C107.643 43.764 107.759 43.808 107.815 43.832C107.871 43.856 107.967 43.9 108.103 43.964C108.239 44.02 108.331 44.064 108.379 44.096C108.427 44.12 108.499 44.164 108.595 44.228C108.699 44.292 108.767 44.348 108.799 44.396C108.839 44.444 108.887 44.508 108.943 44.588C109.007 44.668 109.051 44.748 109.075 44.828C109.099 44.9 109.119 44.988 109.135 45.092C109.151 45.188 109.159 45.292 109.159 45.404C109.159 45.884 108.979 46.284 108.619 46.604C108.259 46.916 107.743 47.072 107.071 47.072ZM112.248 47.072C111.344 47.072 110.58 46.792 109.956 46.232L110.46 45.5C110.964 45.964 111.56 46.196 112.248 46.196C112.584 46.196 112.852 46.12 113.052 45.968C113.252 45.816 113.352 45.632 113.352 45.416C113.352 45.192 113.252 45.024 113.052 44.912C112.86 44.792 112.52 44.648 112.032 44.48C112 44.472 111.976 44.464 111.96 44.456C111.392 44.256 110.956 44.028 110.652 43.772C110.356 43.516 110.208 43.144 110.208 42.656C110.208 42.208 110.388 41.836 110.748 41.54C111.116 41.236 111.58 41.084 112.14 41.084C112.884 41.084 113.552 41.324 114.144 41.804L113.64 42.572C113.176 42.172 112.66 41.972 112.092 41.972C111.86 41.972 111.652 42.036 111.468 42.164C111.284 42.292 111.192 42.456 111.192 42.656C111.192 42.864 111.28 43.032 111.456 43.16C111.64 43.288 111.92 43.424 112.296 43.568C112.36 43.592 112.476 43.636 112.644 43.7C112.82 43.764 112.936 43.808 112.992 43.832C113.048 43.856 113.144 43.9 113.28 43.964C113.416 44.02 113.508 44.064 113.556 44.096C113.604 44.12 113.676 44.164 113.772 44.228C113.876 44.292 113.944 44.348 113.976 44.396C114.016 44.444 114.064 44.508 114.12 44.588C114.184 44.668 114.228 44.748 114.252 44.828C114.276 44.9 114.296 44.988 114.312 45.092C114.328 45.188 114.336 45.292 114.336 45.404C114.336 45.884 114.156 46.284 113.796 46.604C113.436 46.916 112.92 47.072 112.248 47.072ZM121.714 41.084C121.834 41.084 121.914 41.088 121.954 41.096V42.176C121.778 42.16 121.65 42.152 121.57 42.152C121.026 42.152 120.594 42.34 120.274 42.716C119.954 43.092 119.794 43.58 119.794 44.18V47H118.822V41.156H119.794V42.188H119.806C120.262 41.452 120.898 41.084 121.714 41.084ZM127.339 41.156H128.311V47H127.375V46.076H127.363C126.867 46.74 126.187 47.072 125.323 47.072C124.499 47.072 123.815 46.8 123.271 46.256C122.727 45.712 122.455 45 122.455 44.12C122.455 43.256 122.723 42.536 123.259 41.96C123.803 41.376 124.487 41.084 125.311 41.084C126.143 41.084 126.815 41.4 127.327 42.032H127.339V41.156ZM125.407 46.184C125.951 46.184 126.415 45.992 126.799 45.608C127.183 45.216 127.375 44.72 127.375 44.12C127.375 43.52 127.187 43.016 126.811 42.608C126.443 42.192 125.979 41.984 125.419 41.984C124.859 41.984 124.387 42.184 124.003 42.584C123.627 42.976 123.439 43.488 123.439 44.12C123.439 44.72 123.619 45.216 123.979 45.608C124.347 45.992 124.823 46.184 125.407 46.184ZM131.64 47.072C130.624 47.072 130.116 46.468 130.116 45.26V41.996H129.372V41.156H130.116V39.164L131.088 39.056V41.156H133.032V41.996H131.088V45.116C131.088 45.476 131.14 45.74 131.244 45.908C131.356 46.076 131.544 46.16 131.808 46.16C132.112 46.16 132.44 46.06 132.792 45.86L133.056 46.712C132.624 46.952 132.152 47.072 131.64 47.072ZM139.114 43.988C139.114 44.052 139.11 44.136 139.102 44.24L139.09 44.384H134.59C134.654 44.928 134.862 45.364 135.214 45.692C135.574 46.02 136.018 46.184 136.546 46.184C137.226 46.184 137.774 45.92 138.19 45.392L138.874 45.98C138.306 46.708 137.518 47.072 136.51 47.072C135.67 47.072 134.974 46.796 134.422 46.244C133.878 45.684 133.606 44.964 133.606 44.084C133.606 43.212 133.87 42.496 134.398 41.936C134.934 41.368 135.602 41.084 136.402 41.084C137.21 41.084 137.862 41.356 138.358 41.9C138.862 42.444 139.114 43.14 139.114 43.988ZM137.59 42.416C137.294 42.128 136.914 41.984 136.45 41.984C135.986 41.984 135.586 42.128 135.25 42.416C134.922 42.696 134.714 43.084 134.626 43.58H138.154C138.074 43.092 137.886 42.704 137.59 42.416ZM145.307 47.072C144.291 47.072 143.783 46.468 143.783 45.26V41.996H143.039V41.156H143.783V39.164L144.755 39.056V41.156H146.699V41.996H144.755V45.116C144.755 45.476 144.807 45.74 144.911 45.908C145.023 46.076 145.211 46.16 145.475 46.16C145.779 46.16 146.107 46.06 146.459 45.86L146.723 46.712C146.291 46.952 145.819 47.072 145.307 47.072ZM151.046 41.084C151.71 41.084 152.23 41.284 152.606 41.684C152.982 42.084 153.17 42.688 153.17 43.496V47H152.198V43.772C152.198 42.58 151.722 41.984 150.77 41.984C150.186 41.984 149.722 42.168 149.378 42.536C149.042 42.904 148.874 43.412 148.874 44.06V47H147.902V38.168H148.874V42.116H148.898C149.386 41.428 150.102 41.084 151.046 41.084ZM155.366 40.076C155.166 40.076 154.998 40.012 154.862 39.884C154.734 39.748 154.67 39.584 154.67 39.392C154.67 39.2 154.734 39.04 154.862 38.912C154.998 38.776 155.166 38.708 155.366 38.708C155.558 38.708 155.722 38.776 155.858 38.912C155.994 39.048 156.062 39.208 156.062 39.392C156.062 39.584 155.994 39.748 155.858 39.884C155.722 40.012 155.558 40.076 155.366 40.076ZM154.874 47V41.156H155.846V47H154.874ZM159.458 47.072C158.554 47.072 157.79 46.792 157.166 46.232L157.67 45.5C158.174 45.964 158.77 46.196 159.458 46.196C159.794 46.196 160.062 46.12 160.262 45.968C160.462 45.816 160.562 45.632 160.562 45.416C160.562 45.192 160.462 45.024 160.262 44.912C160.07 44.792 159.73 44.648 159.242 44.48C159.21 44.472 159.186 44.464 159.17 44.456C158.602 44.256 158.166 44.028 157.862 43.772C157.566 43.516 157.418 43.144 157.418 42.656C157.418 42.208 157.598 41.836 157.958 41.54C158.326 41.236 158.79 41.084 159.35 41.084C160.094 41.084 160.762 41.324 161.354 41.804L160.85 42.572C160.386 42.172 159.87 41.972 159.302 41.972C159.07 41.972 158.862 42.036 158.678 42.164C158.494 42.292 158.402 42.456 158.402 42.656C158.402 42.864 158.49 43.032 158.666 43.16C158.85 43.288 159.13 43.424 159.506 43.568C159.57 43.592 159.686 43.636 159.854 43.7C160.03 43.764 160.146 43.808 160.202 43.832C160.258 43.856 160.354 43.9 160.49 43.964C160.626 44.02 160.718 44.064 160.766 44.096C160.814 44.12 160.886 44.164 160.982 44.228C161.086 44.292 161.154 44.348 161.186 44.396C161.226 44.444 161.274 44.508 161.33 44.588C161.394 44.668 161.438 44.748 161.462 44.828C161.486 44.9 161.506 44.988 161.522 45.092C161.538 45.188 161.546 45.292 161.546 45.404C161.546 45.884 161.366 46.284 161.006 46.604C160.646 46.916 160.13 47.072 159.458 47.072ZM170.112 41.156H171.144L167.844 49.376H166.812L167.856 46.76L165.384 41.156H166.428L168.324 45.608H168.348L170.112 41.156ZM177.083 43.988C177.083 44.052 177.079 44.136 177.071 44.24L177.059 44.384H172.559C172.623 44.928 172.831 45.364 173.183 45.692C173.543 46.02 173.987 46.184 174.515 46.184C175.195 46.184 175.743 45.92 176.159 45.392L176.843 45.98C176.275 46.708 175.487 47.072 174.479 47.072C173.639 47.072 172.943 46.796 172.391 46.244C171.847 45.684 171.575 44.964 171.575 44.084C171.575 43.212 171.839 42.496 172.367 41.936C172.903 41.368 173.571 41.084 174.371 41.084C175.179 41.084 175.831 41.356 176.327 41.9C176.831 42.444 177.083 43.14 177.083 43.988ZM175.559 42.416C175.263 42.128 174.883 41.984 174.419 41.984C173.955 41.984 173.555 42.128 173.219 42.416C172.891 42.696 172.683 43.084 172.595 43.58H176.123C176.043 43.092 175.855 42.704 175.559 42.416ZM182.972 41.156H183.944V47H183.008V46.076H182.996C182.5 46.74 181.82 47.072 180.956 47.072C180.132 47.072 179.448 46.8 178.904 46.256C178.36 45.712 178.088 45 178.088 44.12C178.088 43.256 178.356 42.536 178.892 41.96C179.436 41.376 180.12 41.084 180.944 41.084C181.776 41.084 182.448 41.4 182.96 42.032H182.972V41.156ZM181.04 46.184C181.584 46.184 182.048 45.992 182.432 45.608C182.816 45.216 183.008 44.72 183.008 44.12C183.008 43.52 182.82 43.016 182.444 42.608C182.076 42.192 181.612 41.984 181.052 41.984C180.492 41.984 180.02 42.184 179.636 42.584C179.26 42.976 179.072 43.488 179.072 44.12C179.072 44.72 179.252 45.216 179.612 45.608C179.98 45.992 180.456 46.184 181.04 46.184ZM188.509 41.084C188.629 41.084 188.709 41.088 188.749 41.096V42.176C188.573 42.16 188.445 42.152 188.365 42.152C187.821 42.152 187.389 42.34 187.069 42.716C186.749 43.092 186.589 43.58 186.589 44.18V47H185.617V41.156H186.589V42.188H186.601C187.057 41.452 187.693 41.084 188.509 41.084Z" fill="#4A556C"/>
<g clip-path="url(#clip0_508_5818)">
<path d="M39.5497 16.4507C45.9283 22.8292 45.9283 33.1709 39.5497 39.5495C33.1712 45.928 22.8295 45.928 16.4509 39.5495C10.0724 33.1709 10.0724 22.8292 16.4509 16.4507C22.8295 10.0721 33.1712 10.0721 39.5497 16.4507Z" stroke="#20AD96" stroke-width="3" stroke-linecap="round" stroke-linejoin="round"/>
<path d="M31.2995 24.7001C33.122 26.5225 33.122 29.4773 31.2995 31.2998C29.4771 33.1222 26.5223 33.1222 24.6998 31.2998C22.8774 29.4773 22.8774 26.5225 24.6998 24.7001C26.5223 22.8776 29.4771 22.8776 31.2995 24.7001" stroke="#333461" stroke-width="3" stroke-linecap="round" stroke-linejoin="round"/>
<path d="M28 49.0001V39.6667" stroke="#20AD96" stroke-width="3" stroke-linecap="round" stroke-linejoin="round"/>
<path d="M28 7V16.3333" stroke="#20AD96" stroke-width="3" stroke-linecap="round" stroke-linejoin="round"/>
<path d="M16.3333 28H7" stroke="#20AD96" stroke-width="3" stroke-linecap="round" stroke-linejoin="round"/>
<path d="M49.0003 28H39.667" stroke="#20AD96" stroke-width="3" stroke-linecap="round" stroke-linejoin="round"/>
</g>
<defs>
<clipPath id="clip0_508_5818">
<rect width="56" height="56" fill="white"/>
</clipPath>
</defs>
</svg>
